PathFileType	4	(X/Y/Z)	RBDS012\RBDS012runT25.trc
DataRate	CameraRate	NumFrames	NumMarkers	Units	OrigDataRate	OrigDataStartFrame	OrigNumFrames
150.000000	150.000000	6	33	mm	150.000000	1687	4500
Frame#	Time	L.ASIS			L.Heel.Bottom			L.Heel.Lateral			L.Heel.Top			L.Iliac.Crest			L.MT1			L.MT5			L.PSIS			L.Shank.Bottom.Lateral			L.Shank.Bottom.Medial			L.Shank.Top.Lateral			L.Shank.Top.Medial			L.Thigh.Bottom.Lateral			L.Thigh.Bottom.Medial			L.Thigh.Top.Lateral			L.Thigh.Top.Medial			R.ASIS			R.ASY			R.Heel.Bottom			R.Heel.Lateral			R.Heel.Top			R.Iliac.Crest			R.MT1			R.MT5			R.PSIS			R.Shank.Bottom.Lateral			R.Shank.Bottom.Medial			R.Shank.Top.Lateral			R.Shank.Top.Medial			R.Thigh.Bottom.Lateral			R.Thigh.Bottom.Medial			R.Thigh.Top.Lateral			R.Thigh.Top.Medial			
		X1	Y1	Z1	X2	Y2	Z2	X3	Y3	Z3	X4	Y4	Z4	X5	Y5	Z5	X6	Y6	Z6	X7	Y7	Z7	X8	Y8	Z8	X9	Y9	Z9	X10	Y10	Z10	X11	Y11	Z11	X12	Y12	Z12	X13	Y13	Z13	X14	Y14	Z14	X15	Y15	Z15	X16	Y16	Z16	X17	Y17	Z17	X18	Y18	Z18	X19	Y19	Z19	X20	Y20	Z20	X21	Y21	Z21	X22	Y22	Z22	X23	Y23	Z23	X24	Y24	Z24	X25	Y25	Z25	X26	Y26	Z26	X27	Y27	Z27	X28	Y28	Z28	X29	Y29	Z29	X30	Y30	Z30	X31	Y31	Z31	X32	Y32	Z32	X33	Y33	Z33	

1688	11.24666666666667	2114.157952265622	956.9050644453927	885.0438845613745	1949.517098852828	34.41752209418456	978.5248613414044	1977.82435669569	47.73120281520777	930.7193059106089	1961.816839747598	83.94395375361448	978.3608122285112	2059.870115446417	1020.19018720126	853.4518663924664	2176.123848961978	42.17466825855958	1010.715599214127	2144.309406272312	44.22232629436099	893.9248735227786	1955.063112744869	1009.836246394285	988.9418447671436	2068.544892727679	161.3618152228542	916.8528785301023	2024.743880917877	181.5330293928058	944.1991383262921	2089.455245266567	236.9264644793219	897.3364741017866	2048.632093877891	257.1533799577444	926.169718346938	2181.042137136198	599.8784316949882	855.8040111736013	2120.723487045459	572.8628869879116	886.4458259209703	2125.484462993394	693.6125611605947	837.4401563724283	2069.966162456357	669.7940577757222	869.6769619059321	2133.971727847289	948.8213187233237	1157.154993744643	1653.981185683958	363.99749999898	1088.7519876043	1596.109559855459	557.678791304278	1101.189503761044	1610.090328454556	532.3542342683968	1137.14557539092	1645.413419858567	545.4808657525998	1102.554528418737	2094.307141981099	1015.703798369492	1190.089716407188	1610.849384980583	340.3442980250517	1033.924936296752	1599.531444985594	355.0645552589814	1152.267940162277	1963.133439006043	1002.618714681205	1091.342703664053	1740.025947423867	476.0739608811698	1150.304200880438	1748.207709218668	519.1584466689645	1123.011015474395	1822.9127741131	473.7788321721249	1168.570917315573	1826.772064610005	519.8063136700491	1142.392152660541	2073.353856288523	540.8432696644238	1192.022651801011	2019.879239014207	536.5698693059354	1141.572378531527	2050.144089032392	647.2501994604906	1204.312306850225	1997.615757200944	643.8999747458372	1159.227757004488	
1689	11.25333333333333	2113.172712803452	955.3409130491191	884.3750150499602	1932.920838609243	34.5399438223267	978.5175798261946	1961.185181244617	47.79620279995673	930.6743282543306	1945.229129145354	84.04947499929609	978.2936813064224	2057.870840068136	1019.43497012084	852.9655324938772	2159.380623537742	42.16280052748581	1010.709337333481	2127.514472902192	44.35742463663307	893.9218100687582	1954.369857298048	1009.094393224499	988.4268202463352	2053.694289585452	160.7362314596213	916.849855756818	2010.302010795305	181.9090791932028	944.0402687536763	2076.3130862701	235.7535910175789	897.2468573301854	2035.897289709949	256.9175727130026	925.9445859586281	2175.446695985395	596.6584724589547	855.200576122968	2114.484004559529	570.5150845902173	885.4153569493607	2121.50245522902	691.3290673219018	836.9144463021697	2065.457140286455	668.3278646498228	868.8104207665261	2132.954640726344	947.1684436088927	1156.632707842661	1668.587612616125	363.5905046396032	1087.865846587984	1608.621221167433	556.4487508696417	1100.758256554062	1623.146755135046	531.4489850804229	1136.528007580335	1658.118466349764	544.805250446654	1101.793261372168	2092.308600422212	1014.348366318522	1190.199152366996	1625.387456585159	339.2721915021982	1033.53787343011	1614.759229531333	354.0869794374286	1151.820654224872	1962.137075208259	1001.548385735007	1090.73375070331	1753.615832425915	475.5246016408627	1149.760696564722	1761.992859177716	518.6593971844113	1122.616730461451	1836.439036232924	472.9151036268015	1168.28356853193	1840.524898796419	519.0052994105861	1142.194271045649	2083.423075053256	540.116218059168	1192.901271955151	2029.789119459052	534.0180458047959	1142.854338668772	2057.162500769238	645.8815854330238	1204.859352383396	2004.597345165152	640.7851611185723	1159.973194990838	
1690	11.26	2112.354317084078	954.3032447745702	883.9207519348927	1916.160754885943	34.66955063993672	978.5168687048691	1944.410002890132	47.83760134365298	930.6299789582426	1928.516451980307	84.15572148438955	978.2202400636929	2056.291175494731	1019.293501307186	852.4380201830313	2142.515428979738	41.96842611631254	1010.77150338706	2110.634554668923	44.30823325760972	893.9964191168739	1953.751735455903	1009.044881488693	987.7425095781563	2038.517941001039	160.1540036493095	916.8385730229544	1995.498701889803	182.2070012321937	943.8712132379314	2062.643065341462	234.6464128914717	897.1688390775286	2022.59099759539	256.6353310636062	925.7184848300419	2169.175267024674	593.7773400820437	854.6853230915508	2107.477161528156	568.6129088746374	884.3512838098095	2117.072143567224	689.4828338994661	836.4842547735861	2060.421461113303	667.3989732890035	867.935912660551	2131.977519330546	946.4335334602197	1156.191130098889	1683.678533118848	361.9498077375339	1086.78477174385	1620.651411453081	553.6253578154981	1100.213487210093	1635.844370282697	529.0087939033976	1135.818702608005	1670.38939124798	542.8026503531445	1100.917496626299	2090.620892026064	1013.968013300609	1190.240869607999	1640.564723563111	336.7501920609263	1032.954105311438	1630.54931899705	351.5684261153359	1151.20773628134	1961.300178103474	1001.225866029277	1090.039079604794	1767.129929033554	474.1660013124554	1149.055507711181	1775.430558436654	517.3892293144874	1122.078592848103	1849.900794437503	471.7280250578995	1167.830752680091	1853.926806208802	517.9145340980353	1141.817668806393	2093.699742931243	540.3453135091087	1193.801337171221	2039.961842000174	532.4384322550851	1144.131123514045	2064.350295144907	645.3587570094041	1205.496500757302	2011.817562668614	638.5206177557006	1160.806614908367	
1691	11.26666666666667	2111.688381987822	953.7638071673558	883.6548229602948	1899.266577713716	34.86117386447646	978.5125160722496	1927.524933878688	47.90754621631746	930.5768964183796	1911.710031984985	84.31713255032973	978.1306992825128	2055.178678276954	1019.635408949846	851.8932132009755	2125.550860427959	41.63310717358505	1010.879495595115	2093.686327518041	44.12080315141117	894.1189656440476	1953.201384784157	1009.626694022135	986.968419902963	2023.095076205381	159.6904593125063	916.8197651322644	1980.403849225227	182.5183835855809	943.6883858625552	2048.543029901257	233.6912990739648	897.0942030900231	2008.805953499585	256.4053483264667	925.4817426176768	2162.253124785069	591.2855619688098	854.2530422103775	2099.772285496132	567.20602059126	883.3136619339961	2112.180619125906	688.0924920169815	836.1459558057389	2054.886548555915	667.0228175480959	867.109556540502	2131.052095927761	946.529419493612	1155.845047964386	1699.18679424371	359.1082930942625	1085.498231285018	1632.173139391564	549.1967580485987	1099.60568816885	1648.143172402835	525.0118180410326	1135.068737317645	1682.184062378107	539.458008233584	1099.981534975907	2089.286813841476	1014.405978500994	1190.202948153705	1656.337808468739	332.8509506179525	1032.140089087648	1646.841031093853	347.5301761343937	1150.402018773987	1960.596722585926	1001.558220249044	1089.324265299429	1780.493974777406	472.0029060668502	1148.208803295985	1788.437394634015	515.3595583797165	1121.427180817793	1863.220219196949	470.2336941328278	1167.227566851381	1866.889235072513	516.5526479939221	1141.293191640435	2104.094486345115	541.5530452060374	1194.694984135786	2050.330844440797	531.8658205082667	1145.353814885658	2071.631054368306	645.7050115150687	1206.194402523519	2019.208279566087	637.1363244625064	1161.688119469667	
1692	11.27333333333333	2111.157366901047	953.6964012482476	883.5351307948623	1882.276972677335	35.17878653368464	978.495424781378	1910.563573328896	48.06500009821885	930.5066599509976	1894.84658305383	84.59751743229026	978.0128123009312	2054.554317940606	1020.357812569078	851.3646117223223	2108.508902980116	41.21784450732903	1011.010806078356	2076.686231564926	43.85525500670862	894.2636688149162	1952.725133527081	1010.781275554208	986.1853092441644	2007.48993433215	159.4260692647782	916.7911159817202	1965.080095487431	182.9380070601178	943.4923673513103	2034.096542508274	232.9761909046966	897.014530820555	1994.626252692553	256.3261910106054	925.2302622682155	2154.702634741221	589.2223199433103	853.9035862844619	2091.435198338549	566.3376953334617	882.3698722542269	2106.819232972662	687.16866963012	835.8975102672108	2048.884320935768	667.2116336182895	866.3918761202757	2130.194067565552	947.3540227180998	1155.598029754484	1715.072373170886	355.1124070670092	1084.010606968365	1643.191432118827	543.1563008574611	1098.965387354498	1660.033299274806	519.4503544929685	1134.307186335877	1693.49084934393	534.7607305942478	1099.021105076954	2088.308371710971	1015.5033980939	1190.08362456852	1672.692140113092	327.6570477895198	1031.079329137474	1663.597255505085	342.0212353281588	1149.386995095742	1960.006774490404	1002.470708727349	1088.649669891932	1793.656575324406	469.0445580544671	1147.242686456541	1800.959754373653	512.5800472457448	1120.690841379383	1876.333425646551	468.4443251664719	1166.495189560991	1879.345046497324	514.9259800090674	1140.655446946983	2114.501395054079	543.7471354451258	1195.5515488964	2060.809417204282	532.3218087638257	1146.47485383091	2078.918874098954	646.9323566663384	1206.916368741319	2026.687064902065	636.6528621114001	1162.57280524981	
1693	11.28	2110.746619995798	954.0812336332613	883.5098748620827	1865.233580906669	35.69591510868946	978.4590609348631	1893.562202702243	48.37471119862509	930.4130280939999	1877.965736429389	85.06992548443523	977.8532855614482	2054.415498694853	1021.396926415093	850.8906298157526	2091.407512661951	40.78870032603641	1011.145821250443	2059.647753849085	43.57306025430347	894.4115250174395	1952.342451484845	1012.456150707972	985.4637397989189	1991.750864200506	159.4410170383471	916.7472566367476	1949.580195791598	183.556918156452	943.2862438259202	2019.371251806647	232.5857148145605	896.9221319407222	1980.123527119543	256.4906523521213	924.964331501869	2146.54670228212	587.6178532369474	853.641812081617	2082.527863443976	566.0458264064202	881.5870009040152	2100.989418951176	686.71776550163	835.7390706643373	2042.453291920588	667.9770604716106	865.8411616429921	2129.42373399172	948.8079287810154	1155.441056018672	1731.320214237426	350.0217529168461	1082.342188108979	1653.746600460356	535.5082438114184	1098.299263923333	1671.537997073583	512.3353502539154	1133.537450905208	1704.331730004742	528.7090921731494	1098.050458752713	2087.652595829999	1017.122798637874	1189.892950756312	1689.638290712528	321.2593734441169	1029.774035304363	1680.802128923276	335.1197081757817	1148.159503399439	1959.520240776103	1003.911719080702	1088.06300305821	1806.591790057885	465.3052611477161	1146.179481649447	1812.976725723432	509.0582793506854	1119.892562194347	1889.193562599787	466.3676220436361	1165.658848656055	1891.252329161435	513.0278902748144	1139.938490830266	2124.805868769791	546.9160364065815	1196.340888666565	2071.296823710075	533.8100570611896	1147.451811354779	2086.125532342527	649.0369956021598	1207.623347595094	2034.163850737029	637.0773033526349	1163.416234504103	
